<?xml version="1.0" encoding="utf-8"?>
<!-- Generator: Adobe Illustrator 21.0.0, SVG Export Plug-In . SVG Version: 6.00 Build 0)  -->
<svg version="1.1" id="图层_1" xmlns="http://www.w3.org/2000/svg" xmlns:xlink="http://www.w3.org/1999/xlink" x="0px" y="0px"
	 viewBox="0 0 1024 1024" style="enable-background:new 0 0 1024 1024;" xml:space="preserve">
<style type="text/css">
	.st0{fill-rule:evenodd;clip-rule:evenodd;fill:#FFFFFF;}
</style>
<g>
	<g>
		<path class="st0" d="M578.6,512.7l345.1-345.3c4.8-4.7,5.1-12.2,0.6-16.7l-50.2-50.1c-4.5-4.5-12.4-4.6-17.5-0.3L511.5,445.6
			L166.2,100.5c-4.7-4.8-12.2-5.1-16.7-0.6l-50.1,50.2c-4.5,4.5-4.6,12.4-0.3,17.5l345.2,345.1L99.3,858c-4.8,4.7-5.1,12.2-0.6,16.7
			l50.2,50.1c4.5,4.5,12.4,4.6,17.5,0.3l345.1-345.2l345.3,345.1c4.7,4.8,12.2,5.1,16.7,0.6l50.1-50.2c4.5-4.5,4.6-12.4,0.3-17.5
			L578.6,512.7z"/>
	</g>
</g>
</svg>
