<?xml version="1.0" encoding="utf-8"?>
<!-- Generator: Adobe Illustrator 21.0.0, SVG Export Plug-In . SVG Version: 6.00 Build 0)  -->
<svg version="1.1" id="图层_1" xmlns="http://www.w3.org/2000/svg" xmlns:xlink="http://www.w3.org/1999/xlink" x="0px" y="0px"
	 viewBox="0 0 1024 1024" style="enable-background:new 0 0 1024 1024;" xml:space="preserve">
<style type="text/css">
	.st0{fill:#EF3B1D;}
</style>
<path class="st0" d="M512.3,63.8c-247.5,0-448.1,200.6-448.1,448.1S264.8,960,512.3,960s448.1-200.6,448.1-448.1
	S759.7,63.8,512.3,63.8z M509.5,251.8c24.1-1.5,44.8,16.7,46.4,40.8c0.1,1.8,0.1,3.8,0,5.6L535,623.9c-0.8,12.5-11.6,22-24.1,21.2
	c-11.6-0.7-20.5-10-21.2-21.2l-20.9-325.8C467.2,274.1,485.4,253.3,509.5,251.8z M512.3,787.6c-25.8,0-46.7-20.9-46.7-46.7
	c0-25.8,20.9-46.7,46.7-46.7c25.8,0,46.7,20.9,46.7,46.7C559,766.7,538.1,787.6,512.3,787.6z"/>
</svg>
